<?xml version="1.0" standalone="no"?>
<!DOCTYPE svg PUBLIC "-//W3C//DTD SVG 20010904//EN"
 "http://www.w3.org/TR/2001/REC-SVG-20010904/DTD/svg10.dtd">
<svg version="1.0" xmlns="http://www.w3.org/2000/svg"
 width="298.000000pt" height="299.000000pt" viewBox="0 0 298.000000 299.000000"
 preserveAspectRatio="xMidYMid meet">

<g transform="translate(0.000000,299.000000) scale(0.100000,-0.100000)"
fill="#000000" stroke="none">
<path d="M1450 2921 c-19 -15 -192 -149 -385 -297 -192 -149 -388 -299 -433
-335 -46 -35 -99 -75 -117 -89 -30 -23 -77 -59 -308 -239 -45 -34 -101 -77
-125 -94 -50 -36 -50 -21 7 -207 55 -176 96 -309 206 -670 53 -173 113 -371
135 -440 78 -254 109 -357 135 -443 l26 -87 899 0 899 0 26 88 c26 85 57 188
135 442 22 69 82 267 135 440 110 361 151 494 206 670 57 186 57 171 7 207
-41 29 -163 123 -327 251 -40 31 -88 68 -106 82 -18 14 -50 39 -71 55 -74 57
-779 601 -841 648 -34 26 -63 47 -65 47 -2 -1 -19 -13 -38 -29z m140 -176 c92
-69 477 -366 915 -705 104 -80 217 -166 251 -192 35 -27 64 -53 64 -60 0 -10
-65 -225 -180 -598 -21 -69 -80 -260 -130 -425 -50 -165 -107 -349 -125 -410
-19 -60 -42 -138 -52 -172 l-18 -63 -825 0 -825 0 -19 68 c-11 37 -36 121 -57
187 -20 66 -76 248 -124 405 -85 281 -125 410 -204 665 -76 248 -101 332 -101
344 0 6 34 37 76 68 80 60 116 88 221 170 34 26 97 75 140 108 43 33 165 127
272 210 106 82 208 161 226 175 50 38 251 192 325 249 36 27 67 50 69 51 1 0
47 -34 101 -75z"/>
</g>
</svg>
